<?xml version="1.0" encoding="utf-8"?>
<!-- Generator: Adobe Illustrator 25.4.1, SVG Export Plug-In . SVG Version: 6.00 Build 0)  -->
<svg version="1.1" id="Layer_1" xmlns="http://www.w3.org/2000/svg" xmlns:xlink="http://www.w3.org/1999/xlink" x="0px" y="0px"
	 viewBox="0 0 700 700" style="enable-background:new 0 0 700 700;" xml:space="preserve">
<path d="M303.6,570.5c-0.1-90.1-1.6-180.1-6.3-270.1c-3.6-67.6-28.8-179,18.8-235.7c36.5-9,54.9-0.3,55.1,26.1
	c0.5,6.1,0.7,12.1,0.5,18.2c0,15.1-2.4,30.3-4.1,45.3c-4.8,40.9-1.6,83.4-1.3,124.5c0.5,97,1.4,193.9,1.5,290.9c0,6.1,9.4,6.1,9.4,0
	c-0.1-121.7-1.5-243.4-1.8-365c-0.1-30.3,29.6-162.2-30-161.1c-74.8,1.4-65.2,123.8-62.8,172.4c5.8,118.3,11.6,236,11.6,354.5
	C294.2,576.6,303.6,576.6,303.6,570.5L303.6,570.5z"/>
<path d="M210.4,642.7c1.1-13.4,1.8-26.9,2.5-40.3c1-17.9,34.6-20.8,46.6-23c29.7-5.5,60.6-5.5,90.6-5.4c24.4,0.1,48.8,1.9,73.2,1.6
	c46.2-0.5,47.4,37.4,42.9,72.5c-0.8,6,8.7,5.9,9.4,0c2.6-20.3,9.9-49.7-5.8-67c-15.3-16.9-34.9-15-56.3-14.8
	c-69.3,0.7-140.9-9.2-206.7,18.6c-1.6,0.7-2.2,2.6-2.3,4.1c-1.4,17.9-2.2,35.9-3.6,53.8C200.5,648.8,209.9,648.8,210.4,642.7
	L210.4,642.7z"/>
<path d="M165.7,649.1c23.7-4.3,46.8,6.5,70.5,7.3c6.1,0.2,6.1-9.2,0-9.4c-24.8-0.8-47.9-11.5-73-7
	C157.2,641.1,159.8,650.2,165.7,649.1L165.7,649.1z"/>
<path d="M413.6,647.5c29.3,0.4,58.5,4.9,87.8,3.6c6.1-0.3,6.1-9.7,0-9.4c-29.4,1.3-58.5-3.2-87.8-3.6
	C407.6,637.9,407.6,647.4,413.6,647.5L413.6,647.5z"/>
<path d="M373,125.6c53.7,10,108.3,2.3,161.9,10.4c9.8,1.5,93.1,66.8,86.5,75c-35.3,44.4-71.6,60.1-127.1,63.3
	c-39.4,2.3-78.9,0-118.3-0.3c-6.1,0-6.1,9.4,0,9.4c50,0.3,99.9,3,149.8-2.3c48.1-5.1,78.8-34,108.1-70.8c1.9-2.4,1.8-5.6-0.9-7.4
	c-30.3-20-50.9-62.3-86.7-73.4c-53.5-16.5-115.4-2.8-170.7-13.1C369.5,115.4,367,124.5,373,125.6L373,125.6z"/>
<path d="M282.2,224.1c-84.3-21.2-159.4-1-216.1,64c-1.7,2-1.8,4.7,0,6.7c20.5,22.3,41.7,52,71.4,62.8c17.7,6.5,35.1,8.1,53.9,8.4
	c32.4,0.7,64.4,6.2,96.8,7.2c6.1,0.2,6.1-9.3,0-9.4c-39.1-1.2-78.5-5.4-117.6-8.1c-33-2.3-55.2-21.5-76.6-44.5
	c-11.9-12.7-19.9-18.4-6-33.2c18-19.1,39.6-33.7,63.9-43.5c34.7-14.1,92.5-10.1,127.8-1.2C285.7,234.7,288.1,225.6,282.2,224.1
	L282.2,224.1z"/>
</svg>
